<?xml version="1.0" standalone="no"?><!DOCTYPE svg PUBLIC "-//W3C//DTD SVG 1.1//EN" "http://www.w3.org/Graphics/SVG/1.1/DTD/svg11.dtd"><svg t="1723175210975" class="icon" viewBox="0 0 1024 1024" version="1.1" xmlns="http://www.w3.org/2000/svg" p-id="4267" xmlns:xlink="http://www.w3.org/1999/xlink" width="200" height="200"><path d="M0.001 511.999002a510.989068 510.989068 0 1 0 1021.978136 0A510.989068 510.989068 0 1 0 0.001 511.999002z" fill="#E1E6E9" p-id="4268" data-spm-anchor-id="a313x.search_index.0.i0.691c3a81okbAq9" class="selected"></path><path d="M881.458864 738.751842h-23.952659v-31.936879h30.340035l3.193688 31.936879h-9.581064z m46.308475-11.177908l-14.372594-28.743191c7.98422-3.194686 14.371596-9.582062 20.758971-15.969438l23.95266 20.758972c-9.581064 9.582062-19.162127 17.566282-30.340035 23.953657z m47.905318-55.889538l-30.340035-9.58306c1.597842-6.387376 3.195684-14.371596 3.195684-20.758972v-4.790531l31.936879-1.596844v6.387375c-0.002994 9.582062-1.599838 19.164124-4.792528 30.341034zM942.138934 611.002329c-3.194686-7.98422-9.582062-14.371596-15.969437-20.758971l20.758971-23.95266c9.582062 7.98422 17.565284 19.162127 22.356814 30.340036l-27.146348 14.371595z m-36.727411-33.533723c-7.98422-3.194686-14.371596-3.194686-22.355815-3.194686H878.265176v-31.936879h3.194686c11.177908 0 22.356813 1.596844 33.533723 6.387376l-9.581064 28.743191z m-59.083226-4.790532h-31.935881v-31.936879h31.936879v31.936879z m-63.873758 0h-31.936879v-31.936879h31.936879v31.936879z m-63.873759 0h-31.936879v-31.936879h31.936879v31.936879z m-63.873758 0h-31.936879v-31.936879h31.936879v31.936879z m-63.873758 0h-31.936879v-31.936879h31.936879v31.936879z m-63.873758 0h-31.93688v-31.936879h31.93688v31.936879z m-63.873759 0h-31.936879v-31.936879h31.936879v31.936879z m-63.873758 0h-31.936879v-31.936879h31.936879v31.936879z m-63.873758 0h-31.936879v-31.936879h31.936879v31.936879z m-63.873758 0h-31.93688v-31.936879h31.93688v31.936879z m-63.874757 0h-31.936879v-31.936879h31.936879v31.936879z m-65.470602 0C129.34536 571.083226 116.570609 567.889538 105.392701 561.502163l15.96844-27.146348c7.985218 4.790532 15.970436 6.387376 23.952659 7.98422l-3.193688 30.340035zM76.64951 535.952659c-7.98422-9.581064-14.371596-20.758971-17.565284-33.533723l30.340036-9.581063c3.194686 7.98422 6.387376 15.96844 11.177907 22.355815l-23.952659 20.758971z m11.179904-68.66429H55.890538v-31.936879h31.93688v31.936879z m0-63.873758H55.890538v-31.936879h31.93688v31.936879z m0-63.873758H55.890538v-12.774752c0-7.98422 1.596844-15.96844 3.194686-23.950663l30.340036 7.98422c-1.597842 4.790532-1.597842 11.177908-1.597842 15.968439v12.773754z m12.774751-52.695851l-25.549503-19.162127c7.98422-11.175912 17.565284-19.161129 27.146347-25.548506l17.565284 27.146348c-7.985218 4.790532-14.372594 11.177908-19.162128 17.565283z m41.515947-25.550501l-4.790532-31.936879c6.387376-1.596844 11.177908-1.596844 17.565284-1.596844h17.565283v31.936879h-17.565283c-4.790532 0.000998-7.982224 0.000998-12.774752 1.596844z m413.584581-1.595846h-31.936879v-31.936879h31.936879v31.936879z m-63.875754 0h-31.93688v-31.936879h31.93688v31.936879z m-63.873759 0H396.018301v-31.936879h31.936879v31.936879z m-63.87276 0h-31.936879v-31.936879h31.936879v31.936879z m-63.874756 0h-31.936879v-31.936879h31.936879v31.936879z m-63.873758 0H204.397026v-31.936879h31.93688v31.936879z" fill="#193651" p-id="4269"></path><path d="M429.552024 299.619754V143.129046h-143.715956v156.48971c-83.03389 30.339037-142.117116 108.585389-142.117116 201.20134 0 118.166453 95.809639 213.97709 213.97709 213.97709s213.979086-95.809639 213.979087-213.97709C571.670138 408.205143 512.586912 328.361947 429.552024 299.619754z" fill="#FFFFFF" p-id="4270"></path><path d="M357.694046 730.767622C231.543374 730.767622 127.748517 626.972765 127.748517 500.822092c0-92.616949 55.891535-177.249679 142.119112-212.380246V143.129046c0-9.58306 6.387376-15.970436 15.968439-15.970436h143.715956c9.582062 0 15.969438 6.387376 15.969438 15.969438V288.441846c84.63273 35.130567 142.119112 119.763297 142.119112 212.380246 0 126.150673-102.200009 229.94553-229.94553 229.94553z m-55.889538-571.670136v140.522268c0 6.387376-4.790532 12.774752-11.177908 14.372593C212.381246 342.735539 159.685396 416.189363 159.685396 500.82309c0 108.587385 89.423262 198.008651 198.00865 198.008651s198.008651-89.421266 198.008651-198.008651c0-83.034888-52.695851-158.087552-130.941205-186.830743-6.387376-1.596844-11.17691-7.98422-11.176909-14.371595V159.097486H301.804508z" fill="#193651" p-id="4271"></path><path d="M221.96231 420.979894c-14.372594 23.951661-20.759969 51.098009-20.75997 78.245354 0 86.229574 70.261134 156.48971 156.490708 156.48971s156.48971-70.261134 156.48971-156.490708c0-28.743191-7.98422-55.889538-20.758972-78.245354H221.961312z" fill="#FDBF5E" p-id="4272"></path><path d="M779.260851 414.592519c-94.213793 0-170.862303-76.64851-170.862304-170.862304S685.047057 72.867912 779.260851 72.867912 950.123154 149.515424 950.123154 243.730215c1.596844 94.213793-76.649508 170.862303-170.862303 170.862304z" fill="#FFFFFF" p-id="4273"></path><path d="M779.260851 430.560958c-103.794857 0-186.830743-84.63273-186.830743-186.830743 0-103.794857 84.63273-186.831741 186.830743-186.831741 103.794857 0 186.831741 84.63273 186.831741 186.830743C967.688438 347.525072 883.055708 430.560958 779.261849 430.560958z m0-341.724606c-86.229574 0-154.893864 70.261134-154.893864 154.893863s70.260136 154.892866 154.893864 154.892866c86.229574 0 154.894862-70.261134 154.894862-154.893864s-68.66429-154.891868-154.893864-154.891867z" fill="#193651" p-id="4274"></path><path d="M656.500478 244.261166a122.959979 122.959979 0 1 0 245.920955 0 122.959979 122.959979 0 1 0-245.920955 0z" fill="#E1E6E9" p-id="4275"></path><path d="M790.438758 264.489187s4.790532-4.790532-14.371595-11.177908c0 0-4.790532 1.597842-3.195684-12.774752l-6.387376-1.596844s-1.596844-12.774752-7.98422-9.581063c0 0-4.790532 3.193688-7.98422-6.387376 0 0-11.177908-7.985218-17.565283 11.17691 0 0-19.162127 6.387376-3.193688 27.146347l6.387376 9.581064-4.790532 17.565283s4.790532 1.596844 0 9.582062c0 0 4.790532 7.98422-3.194686 17.565283 0 0 1.596844 19.162127 14.371596 17.564286l-3.193688-4.790532 4.789534-6.387376-4.790532-1.596844 6.387376-6.387376-3.193688-3.194686s20.758971 4.790532 25.548505-12.774751c0 0-6.387376-11.177908 7.98422-4.790532 0 0 6.387376 1.597842 11.177907-14.371596 0 0 7.98422-3.193688 7.98422-7.984219C795.22929 266.086031 790.438758 264.489187 790.438758 264.489187z m110.182233-38.324255c-3.195684 4.790532-3.195684 11.177908-3.195684 11.177907-7.98422 7.98422-17.565284-11.177908-17.565283-11.177907-7.98422 9.582062-17.563287-6.387376-17.563288-6.387376-25.549503-23.951661-38.324255 3.194686-38.324254 3.194686-19.162127 9.582062-9.582062 35.131565-9.582062 35.131565 6.387376 14.371596 22.355815 1.596844 22.355815 1.596844 6.387376 12.774752 12.774752 12.774752 12.774752 12.774752l-3.193688 6.387375c-3.194686 6.387376 6.387376 15.969438 4.790532 19.162128-1.597842 3.194686-17.565284 7.98422-9.58306 20.758971s1.596844 19.162127 1.596844 19.162128 3.195684 4.790532 4.790532 7.98422c22.355815-15.96844 41.517943-38.323257 49.502162-67.067447C902.217835 261.295499 903.814679 243.730215 900.618995 226.164932z m-204.396026-30.340035l3.193688 14.371595c3.194686 14.371596 14.371596 1.596844 14.371596-4.790532s7.985218-14.371596 20.758971-7.984219c12.774752 7.98422 7.985218 0 25.549503-12.774752 17.565284-12.774752 20.758971 1.596844 27.146348-6.387376 6.387376-7.98422 14.372594-25.549503-3.193688-17.565283-17.565284 6.387376-14.371596 1.597842 3.193688-9.581064 17.565284-12.774752-9.581064 0-31.935882-6.387376-9.581064-3.194686-11.177908-11.177908-9.581063-17.565284-14.372594 3.194686-27.147345 9.582062-38.324255 17.565284-3.194686 6.387376-7.98422 14.371596-14.371596 25.549503-11.177908 17.565284 3.191692 25.549503 3.191692 25.549504z" fill="#2EA2DB" p-id="4276"></path><path d="M71.858978 666.893864h785.647227v285.835068H71.858978z" fill="#FFFFFF" p-id="4277"></path><path d="M857.506205 967.09953H71.858978c-9.582062 0-15.969438-6.387376-15.969438-15.96844V666.893864c0-9.582062 6.387376-15.96844 15.96844-15.96844H857.506205c9.582062 0 15.969438 6.386378 15.969437 15.96844v285.835068c-0.001996 7.98422-6.389372 14.370598-15.968439 14.370598z m-769.678787-31.93688h753.711345V682.862303h-753.710347v252.301345z" fill="#193651" p-id="4278"></path><path d="M124.554829 722.782404h41.517942v38.324255h-41.517942z m71.857978 0h41.517943v38.324255h-41.517943z m70.261134 0h41.519939v38.324255H266.673941z m71.857978 0h41.518941v38.324255h-41.517943z m70.261134 0h41.517943v38.324255h-41.517943z m70.261134 0h41.517943v38.324255H479.054187z m71.857978 0h41.517943v38.324255H550.912165z m70.261134 0h41.518941v38.324255h-41.517943z m70.261134 0h41.517943v38.324255h-41.517943z m71.857978 0h41.517943v38.324255h-41.517943z m-638.737582 67.067446h41.517942v38.324255h-41.517942z m71.857978 0h41.517943v38.324255h-41.517943z m70.261134 0h41.519939v38.324255H266.673941z m71.857978 0h41.518941v38.324255h-41.517943z m70.261134 0h41.517943v38.324255h-41.517943z m70.261134 0h41.517943v38.324255H479.054187z m71.857978 0h41.517943v38.324255H550.912165z m70.261134 0h41.518941v38.324255h-41.517943z m70.261134 0h41.517943v38.324255h-41.517943z m71.857978 0h41.517943v38.324255h-41.517943z m-638.737582 67.067447h41.517942V895.24255h-41.517942z m71.857978 0h41.517943V895.24255h-41.517943z m70.261134 0h41.519939V895.24255H266.673941z m354.499358 0h41.518941V895.24255h-41.517943z m70.261134 0h41.517943V895.24255h-41.517943z m71.857978 0h41.517943V895.24255h-41.517943z m-424.760492 0h253.898189V895.24255H338.531919z" fill="#193651" p-id="4279"></path><path d="M253.898191 72.867912h207.588716v70.261134H253.898191z" fill="#FFFFFF" p-id="4280"></path><path d="M461.488903 159.097486H253.898191c-9.581064 0-15.96844-6.387376-15.96844-15.96844V72.867912c0-9.582062 6.387376-15.969438 15.96844-15.969438h207.588716c9.581064 0 15.96844 6.387376 15.96844 15.96844v70.261134c0.002994 9.582062-6.387376 15.969438-15.966444 15.969438z m-191.621274-31.93688h175.652835V88.836352h-175.652835v38.324254z" fill="#193651" p-id="4281"></path><path d="M300.206666 366.686202a28.743191 28.743191 0 1 0 57.488378 0 28.743191 28.743191 0 1 0-57.488378 0zM336.935075 261.294501a20.758971 20.758971 0 1 0 41.517943 0 20.758971 20.758971 0 1 0-41.517943 0z" fill="#FDBF5E" p-id="4282"></path></svg>